<svg width="104" height="119" viewBox="0 0 104 119" fill="none" xmlns="http://www.w3.org/2000/svg">
<style>
    path {
      fill: black;
    }
    @media (prefers-color-scheme: dark) {
      path {
        fill: white;
      }
    }
</style>
<path d="M9.416 93.552L10.712 97.008C19.208 94.848 27.416 90.24 32.456 82.896C34.04 80.736 35.192 78.144 35.912 75.408C36.632 72.672 36.776 69.792 36.776 66.912V52.224V40.992C36.776 37.968 36.92 34.8 38.072 32.064C39.224 29.328 41.384 27.024 43.688 25.008H48.296C46.28 27.312 44.696 29.904 43.688 32.784C41.96 37.248 41.816 41.856 41.816 46.176V57.408V72.096C41.816 74.832 41.672 77.28 40.808 79.584C40.088 81.888 38.648 83.904 37.064 85.92C34.76 88.656 32.312 91.248 29.72 93.84C17.048 97.872 6.104 106.944 0.0560004 118.608H4.088C12.152 111.264 23.096 107.232 34.04 107.376C42.536 107.664 50.888 110.544 57.8 115.44L93.8 95.568C96.248 90.672 98.264 85.632 99.704 80.304C102.44 70.8 103.736 60.72 103.16 50.64C102.584 40.272 99.992 29.76 93.944 21.264C90.488 16.512 85.736 12.48 80.12 10.176C74.504 7.87199 68.456 7.44 62.408 7.44H23.096C21.944 7.44 20.792 7.44 19.64 7.29599C18.632 7.15199 17.48 6.864 16.472 6.288C15.464 5.85599 14.6 4.992 13.88 4.128C13.16 3.26399 12.728 2.112 12.584 1.10399L9.416 0.959996C8.408 4.55999 7.976 8.16 7.976 11.904C8.12 13.776 8.264 15.648 8.696 17.376C9.272 19.248 9.992 20.976 11.288 22.272C12.152 23.28 13.304 24.144 14.456 24.576C15.752 25.008 17.048 25.008 18.488 25.008H38.504L27.128 32.496C24.536 34.224 21.8 36.096 20.216 38.688C19.352 39.984 18.776 41.424 18.488 43.008C18.2 44.592 18.2 46.176 18.2 47.616V51.36C15.32 51.792 12.44 52.224 9.992 53.376C7.832 54.384 6.104 55.824 4.664 57.552C3.368 59.28 2.36 61.296 1.928 63.456C0.92 67.632 1.64 71.952 3.656 75.552H6.392C6.248 74.544 6.248 73.536 6.536 72.528C6.968 70.8 7.976 69.216 9.56 68.352C10.28 67.92 11.144 67.632 12.008 67.488C12.872 67.344 13.736 67.344 14.6 67.344C15.896 67.344 17.048 67.344 18.2 67.344C18.2 67.344 18.2 67.488 18.2 67.632C18.2 71.52 18.2 75.264 17.768 79.008C17.336 82.752 16.184 86.64 13.88 89.52C12.728 91.248 11.144 92.544 9.416 93.552ZM57.512 93.264V74.544L83.72 61.152C83.72 67.2 83.144 73.104 82.136 79.008C80.84 86.928 78.68 94.704 75.656 102.048C70.328 98.016 64.136 94.992 57.512 93.264ZM57.512 25.152C60.824 25.152 64.136 25.296 67.16 26.448C70.472 27.6 73.496 29.616 75.944 32.352C78.392 35.232 80.12 38.544 81.272 42.144L57.512 54.24C57.512 44.448 57.512 34.8 57.512 25.152ZM53.48 92.4C48.008 91.536 42.392 91.392 36.92 92.256C38.072 90.96 39.08 89.808 40.088 88.512C41.96 86.352 43.688 83.76 44.696 80.88C45.704 78 45.848 74.976 45.848 72.24V57.552V46.32C45.848 42 46.136 37.824 47.432 34.224C48.584 30.912 50.744 28.032 53.48 25.872C53.48 48.048 53.48 70.224 53.48 92.4ZM57.512 58.848L82.424 46.32C83 49.2 83.432 52.08 83.576 54.96C83.576 55.536 83.576 56.112 83.72 56.688L57.512 69.936V58.848Z" fill="black"/>
</svg>
