<svg width="1569" height="143" viewBox="0 0 1569 143" fill="none" xmlns="http://www.w3.org/2000/svg">
<path d="M9.416 95.552L10.712 99.008C19.208 96.848 27.416 92.24 32.456 84.896C34.04 82.736 35.192 80.144 35.912 77.408C36.632 74.672 36.776 71.792 36.776 68.912V54.224V42.992C36.776 39.968 36.92 36.8 38.072 34.064C39.224 31.328 41.384 29.024 43.688 27.008H48.296C46.28 29.312 44.696 31.904 43.688 34.784C41.96 39.248 41.816 43.856 41.816 48.176V59.408V74.096C41.816 76.832 41.672 79.28 40.808 81.584C40.088 83.888 38.648 85.904 37.064 87.92C34.76 90.656 32.312 93.248 29.72 95.84C17.048 99.872 6.104 108.944 0.0560004 120.608H4.088C12.152 113.264 23.096 109.232 34.04 109.376C42.536 109.664 50.888 112.544 57.8 117.44L93.8 97.568C96.248 92.672 98.264 87.632 99.704 82.304C102.44 72.8 103.736 62.72 103.16 52.64C102.584 42.272 99.992 31.76 93.944 23.264C90.488 18.512 85.736 14.48 80.12 12.176C74.504 9.87199 68.456 9.44 62.408 9.44H23.096C21.944 9.44 20.792 9.44 19.64 9.29599C18.632 9.15199 17.48 8.864 16.472 8.288C15.464 7.85599 14.6 6.992 13.88 6.128C13.16 5.26399 12.728 4.112 12.584 3.10399L9.416 2.96C8.408 6.55999 7.976 10.16 7.976 13.904C8.12 15.776 8.264 17.648 8.696 19.376C9.272 21.248 9.992 22.976 11.288 24.272C12.152 25.28 13.304 26.144 14.456 26.576C15.752 27.008 17.048 27.008 18.488 27.008H38.504L27.128 34.496C24.536 36.224 21.8 38.096 20.216 40.688C19.352 41.984 18.776 43.424 18.488 45.008C18.2 46.592 18.2 48.176 18.2 49.616V53.36C15.32 53.792 12.44 54.224 9.992 55.376C7.832 56.384 6.104 57.824 4.664 59.552C3.368 61.28 2.36 63.296 1.928 65.456C0.92 69.632 1.64 73.952 3.656 77.552H6.392C6.248 76.544 6.248 75.536 6.536 74.528C6.968 72.8 7.976 71.216 9.56 70.352C10.28 69.92 11.144 69.632 12.008 69.488C12.872 69.344 13.736 69.344 14.6 69.344C15.896 69.344 17.048 69.344 18.2 69.344C18.2 69.344 18.2 69.488 18.2 69.632C18.2 73.52 18.2 77.264 17.768 81.008C17.336 84.752 16.184 88.64 13.88 91.52C12.728 93.248 11.144 94.544 9.416 95.552ZM57.512 95.264V76.544L83.72 63.152C83.72 69.2 83.144 75.104 82.136 81.008C80.84 88.928 78.68 96.704 75.656 104.048C70.328 100.016 64.136 96.992 57.512 95.264ZM57.512 27.152C60.824 27.152 64.136 27.296 67.16 28.448C70.472 29.6 73.496 31.616 75.944 34.352C78.392 37.232 80.12 40.544 81.272 44.144L57.512 56.24C57.512 46.448 57.512 36.8 57.512 27.152ZM53.48 94.4C48.008 93.536 42.392 93.392 36.92 94.256C38.072 92.96 39.08 91.808 40.088 90.512C41.96 88.352 43.688 85.76 44.696 82.88C45.704 80 45.848 76.976 45.848 74.24V59.552V48.32C45.848 44 46.136 39.824 47.432 36.224C48.584 32.912 50.744 30.032 53.48 27.872C53.48 50.048 53.48 72.224 53.48 94.4ZM57.512 60.848L82.424 48.32C83 51.2 83.432 54.08 83.576 56.96C83.576 57.536 83.576 58.112 83.72 58.688L57.512 71.936V60.848ZM110.232 106.784L116.568 101.6L138.024 117.44L167.688 93.392L165.528 89.936L149.688 102.32L132.408 90.512V84.32L163.512 65.024V64.304L148.968 42.272L114.552 60.128V98.144L107.64 103.616L110.232 106.784ZM132.408 80.864V54.8L135.144 53.216L147.672 71.216L132.408 80.864ZM212.279 51.344C212.567 51.488 212.711 51.488 212.999 51.632C214.151 52.064 215.015 52.784 215.735 53.792C216.455 54.8 217.031 55.952 217.175 57.104C217.463 58.4 217.463 59.552 217.463 60.704V98.864L206.231 105.632L198.023 98.864V51.344H212.279ZM222.359 43.424H198.023V26.864V18.368L218.903 31.04L236.759 21.104L212.135 6.41599L180.167 24.56V43.136L173.255 50.48V52.496C174.407 52.496 175.559 52.64 176.567 53.216C177.575 53.648 178.439 54.368 179.159 55.232C179.447 55.952 179.735 56.528 179.879 57.248C180.023 57.968 180.167 58.688 180.167 59.408V97.424L170.519 103.616L172.535 106.496L178.007 103.04L193.271 116.144L215.303 104.336L229.127 116.72L249.863 102.32L246.407 99.584L240.215 103.616L235.319 98.864V43.568L222.359 43.424ZM323.627 99.584L318.011 103.616L311.819 98.144V60.56L318.875 54.8L316.283 51.776L310.235 56.672L293.819 42.704L278.123 55.088L267.035 42.704L247.019 56.384L249.035 59.264L254.507 55.808L260.123 62V100.16L254.507 105.056L271.067 118.16L284.891 105.776L278.699 100.16V60.704L284.891 55.808L295.259 64.736V100.16L290.363 105.056L304.907 118.16L326.363 103.616L323.627 99.584ZM365.722 99.584L359.53 103.616L354.634 98.864V55.376L343.69 42.272L324.25 55.376L326.41 58.112L331.882 54.656L336.778 60.848V98.864L327.706 105.056L329.866 107.792L334.618 104.336L348.442 116.72L369.178 102.32L365.722 99.584ZM332.17 22.832L344.41 36.8L358.09 24.704L345.85 10.736L332.17 22.832ZM398.629 98.864V54.224H408.997L415.765 46.304H398.629V29.744H395.893L372.421 53.36V55.376C373.573 55.376 374.725 55.52 375.733 56.096C376.741 56.528 377.749 57.248 378.325 58.112C378.757 58.832 379.045 59.408 379.189 60.128C379.333 60.848 379.333 61.568 379.333 62.288V97.424L369.685 103.616L371.845 106.496L377.317 103.04L392.437 116.144L412.309 105.776L410.293 103.04L405.397 105.632L398.629 98.864ZM416.513 106.784L422.849 101.6L444.305 117.44L473.969 93.392L471.809 89.936L455.969 102.32L438.689 90.512V84.32L469.793 65.024V64.304L455.249 42.272L420.833 60.128V98.144L413.921 103.616L416.513 106.784ZM438.689 80.864V54.8L441.425 53.216L453.953 71.216L438.689 80.864ZM505.745 98.864V5.696H503.009L479.537 22.256V24.272C480.689 24.704 481.697 25.136 482.849 25.712C483.857 26.144 484.721 26.864 485.441 27.728C485.729 28.304 486.017 29.024 486.161 29.744C486.449 30.464 486.449 31.184 486.449 31.904V97.424L476.801 103.616L478.817 106.496L484.289 103.04L499.553 116.144L517.409 103.616L515.393 100.88L511.217 104.336L505.745 98.864ZM582.944 58.112V96.128C582.944 98 582.944 99.872 583.232 101.744C583.52 103.616 584.096 105.488 584.96 107.072C585.536 108.368 586.4 109.664 586.688 110.96C587.12 112.4 587.12 113.84 586.688 115.28C586.4 116.72 585.536 118.016 584.384 119.024C583.376 120.032 582.08 120.752 580.784 121.472C579.488 122.048 578.336 122.912 577.184 123.632L550.544 142.496C547.952 138.752 543.92 135.872 539.456 135.008C534.416 133.856 528.944 135.152 524.912 138.176L522.896 136.88C524.48 132.272 527.504 128.384 531.536 125.504C535.424 122.768 540.176 121.04 544.928 120.896C551.84 120.752 558.752 123.488 563.504 128.528C564.512 128.384 565.52 128.096 566.384 127.376C567.248 126.8 567.824 125.936 568.256 124.928C568.688 124.064 568.832 122.912 568.832 121.76C568.688 120.752 568.544 119.6 568.112 118.592C567.392 116.576 566.384 114.704 565.52 112.688C564.8 110.96 564.224 109.088 564.08 107.072C563.936 106.928 563.936 106.928 563.936 106.784L550.4 116.144L529.808 101.6V61.28L524.48 54.944L518.72 58.544L516.56 55.808L536 42.56L546.944 55.808V92.672L563.792 103.184C563.792 102.464 563.792 101.888 563.792 101.312L563.648 61.28L555.872 52.064L569.84 42.56L582.944 58.112ZM642.496 11.168C640.768 13.904 639.76 17.072 639.616 20.384H643.072C643.072 19.088 643.36 17.648 644.08 16.496C645.088 14.912 646.672 13.616 648.4 13.328C649.408 13.184 650.272 13.184 651.136 13.472C652 13.76 652.864 14.336 653.44 14.912C654.304 15.92 654.88 17.072 655.024 18.368C655.312 19.52 655.312 20.816 655.312 21.968V48.608C652.144 48.608 649.12 48.752 646.24 50.048C644.08 50.912 642.208 52.496 640.912 54.224C639.472 56.096 638.608 58.4 638.176 60.56C637.456 64.736 638.032 69.056 639.616 72.8H642.496C642.208 71.504 642.352 70.064 642.784 68.768C643.36 67.328 644.512 66.032 645.952 65.312C646.672 65.024 647.392 64.736 648.112 64.592C648.976 64.592 649.696 64.592 650.56 64.592C652.144 64.592 653.728 64.592 655.312 64.592V97.712C648.832 100.736 643.072 105.344 638.608 110.816C636.448 113.696 634.432 116.576 632.992 119.744H637.312C639.184 116.72 641.776 114.272 644.8 112.4C648.112 110.384 652 109.088 655.888 108.656C659.776 108.08 663.808 108.368 667.696 109.232C674.032 110.672 679.936 113.696 685.12 117.584L707.728 99.728C707.872 100.304 708.16 100.88 708.304 101.456C709.456 105.056 711.184 108.368 713.488 111.104C715.648 113.84 718.384 116 721.552 117.44L743.584 100.016V95.552L733.648 103.184C731.632 101.456 729.76 99.44 728.464 97.136C726.448 93.968 725.152 90.368 724.288 86.624C723.28 83.024 722.56 79.424 721.552 75.68C720.4 71.648 718.816 67.616 716.512 64.016C714.064 60.416 711.04 57.392 707.584 54.8C706.144 53.792 704.56 52.928 702.832 52.064L726.448 31.76L703.552 0.511993L685.408 15.632V3.68H681.376V19.088L675.616 23.84V21.68C675.616 19.52 675.472 17.216 675.04 15.056C674.608 12.896 673.744 10.736 672.448 8.864C671.152 7.13599 669.424 5.552 667.552 4.39999C665.536 3.39199 663.376 2.67199 661.216 2.384C657.616 2.096 653.872 2.67199 650.56 4.256C647.248 5.696 644.512 8.144 642.496 11.168ZM675.616 93.392V28.736L681.376 23.84C681.376 47.168 681.376 70.64 681.376 94.112C679.36 93.68 677.488 93.536 675.616 93.392ZM685.408 94.976C685.408 85.76 685.408 76.4 685.408 67.04L687.712 65.024C689.584 65.744 691.456 66.752 693.184 67.904C696.784 70.496 699.52 74.24 701.536 78.272C703.408 82.16 704.56 86.48 705.568 90.8C706 92.96 706.576 95.12 707.008 97.136L700.096 102.608C695.776 99.152 690.736 96.56 685.408 94.976ZM685.408 20.24L689.872 16.352L708.16 42.272L685.408 62C685.408 48.032 685.408 34.064 685.408 20.24ZM748.669 106.784L755.005 101.6L776.461 117.44L806.125 93.392L803.965 89.936L788.125 102.32L770.845 90.512V84.32L801.949 65.024V64.304L787.405 42.272L752.989 60.128V98.144L746.077 103.616L748.669 106.784ZM770.845 80.864V54.8L773.581 53.216L786.109 71.216L770.845 80.864ZM875.629 100.16L869.437 104.336L862.525 97.424V61.136L870.013 55.088L867.565 51.92L861.661 56.672L840.493 42.992L824.653 51.2C822.925 52.064 821.197 53.072 819.757 54.224C818.461 55.52 817.309 56.816 816.589 58.4C815.869 60.128 815.437 61.856 815.581 63.584C815.725 65.6 816.445 67.472 817.453 69.056C819.469 72.08 822.493 74.24 825.805 75.824C826.525 76.112 827.245 76.4 827.965 76.688C824.509 78.56 821.341 80.576 818.461 83.168C816.445 84.896 814.573 86.912 813.277 89.216C811.837 91.664 810.829 94.256 810.685 96.992C810.541 101.168 812.125 105.344 814.717 108.512C818.461 113.12 824.221 116 830.125 116.72L845.245 105.776L856.333 116.72L876.349 103.04L875.629 100.16ZM844.669 77.84C841.933 77.264 839.341 76.544 836.893 75.68C834.157 74.816 831.421 73.952 828.829 72.656C826.237 71.504 823.645 69.92 821.917 67.616C820.621 66.176 819.757 64.304 819.757 62.288C819.757 60.848 820.045 59.408 820.765 58.112C821.485 56.96 822.493 55.808 823.645 54.944C824.509 54.224 825.517 53.792 826.669 53.216L844.669 64.304C844.669 68.768 844.669 73.376 844.669 77.84ZM844.669 82.016C844.669 89.36 844.669 96.56 844.669 103.904C843.085 104.48 841.357 104.48 839.773 104.192C837.757 103.904 835.885 102.752 834.301 101.456C832.717 100.016 831.565 98.432 830.557 96.56C828.541 92.672 827.533 88.064 828.253 83.744C828.541 81.584 829.405 79.568 830.413 77.696C832.285 78.272 834.157 78.848 836.029 79.424C838.909 80.288 841.789 81.152 844.669 82.016ZM905.823 98.864V5.696H903.087L879.615 22.256V24.272C880.767 24.704 881.775 25.136 882.927 25.712C883.935 26.144 884.799 26.864 885.519 27.728C885.807 28.304 886.095 29.024 886.239 29.744C886.527 30.464 886.527 31.184 886.527 31.904V97.424L876.879 103.616L878.895 106.496L884.367 103.04L899.631 116.144L917.487 103.616L915.471 100.88L911.295 104.336L905.823 98.864ZM973.227 75.968L973.947 73.952C972.939 73.232 972.219 72.08 972.075 70.784C972.075 69.92 972.363 69.056 972.651 68.48C973.083 67.76 973.659 67.184 974.379 66.752C975.099 66.32 975.963 66.032 976.683 66.032C977.547 65.888 978.267 65.888 979.131 65.888C979.707 65.888 980.139 65.888 980.715 65.888V89.504C978.123 89.504 975.675 89.792 973.227 90.512C969.339 91.664 965.739 93.968 963.147 96.992C960.411 100.304 958.683 104.624 958.827 109.088C958.827 113.408 960.411 117.728 963.291 121.04C965.307 123.344 968.043 125.216 970.923 126.368C973.947 127.376 977.259 127.664 980.283 127.088L981.003 124.496C979.275 124.64 977.547 124.352 975.963 123.488C974.379 122.768 973.083 121.616 972.219 120.032C971.787 119.168 971.499 118.016 971.355 117.008C971.355 115.856 971.499 114.848 971.931 113.84C972.363 112.832 973.083 111.968 973.947 111.392C974.811 110.672 975.819 110.24 976.827 110.096C978.987 109.664 981.291 109.952 983.163 110.816C986.043 111.968 988.635 113.84 990.651 116L1009.23 95.408L1007.21 93.392L1002.32 98.864C997.707 94.256 991.659 90.944 985.179 89.936C985.035 89.792 984.891 89.792 984.747 89.792V32.48C985.035 33.056 985.467 33.632 985.899 34.352L990.795 42.848L1034.14 116H1039.61V31.328C1041.77 31.184 1044.08 30.752 1046.09 30.032C1048.83 29.024 1051.28 27.44 1053.29 25.424C1055.6 23.12 1057.18 19.952 1057.76 16.784C1058.33 13.472 1057.76 10.016 1056.17 6.992H1054.16C1054.01 8.71999 1053.29 10.304 1052.14 11.6C1051.13 12.896 1049.55 13.76 1047.96 14.192C1046.09 14.768 1044.22 14.624 1042.49 14.192C1040.76 13.616 1039.04 12.752 1037.6 11.744C1036.3 10.736 1035.29 9.584 1034.28 8.43199L1031.4 8.288L1013.55 29.024L1015.56 31.184L1021.04 24.992C1022.91 26.864 1025.21 28.304 1027.52 29.312C1030.25 30.464 1033.13 31.184 1036.01 31.328C1036.3 39.392 1036.3 47.312 1036.3 55.232C1036.16 63.152 1036.01 71.072 1035.58 78.848L1000.88 20.96C999.003 18.224 997.275 15.2 995.259 12.752C993.243 10.304 990.651 8.57599 987.771 7.712C984.171 6.55999 979.995 6.70399 976.395 8.144C972.795 9.584 969.771 12.176 967.611 15.488C965.019 19.664 964.155 24.992 965.163 29.888L967.899 30.464C968.043 29.6 968.331 28.736 968.619 27.728C969.051 26.72 969.627 25.712 970.347 24.848C971.067 23.984 972.075 23.264 973.083 22.976C974.379 22.688 975.819 22.832 976.971 23.552C978.123 24.128 979.131 24.992 979.995 26C980.139 26.288 980.427 26.576 980.715 26.864V46.304C978.987 46.304 977.115 46.592 975.531 47.024C972.651 47.888 970.203 49.328 968.043 51.2C964.731 54.512 962.715 59.264 963.147 63.872C963.435 66.608 964.587 69.344 966.315 71.504C968.187 73.664 970.635 75.248 973.227 75.968ZM1055.93 106.784L1062.27 101.6L1083.73 117.44L1113.39 93.392L1111.23 89.936L1095.39 102.32L1078.11 90.512V84.32L1109.21 65.024V64.304L1094.67 42.272L1060.25 60.128V98.144L1053.34 103.616L1055.93 106.784ZM1078.11 80.864V54.8L1080.85 53.216L1093.37 71.216L1078.11 80.864ZM1168.49 42.128L1153.37 54.656L1159.71 60.416V104.336L1157.12 105.92L1145.6 98.432L1145.74 68.192C1145.74 64.88 1145.74 61.568 1145.02 58.4C1144.3 55.088 1142.57 52.064 1140.13 49.904C1138.69 48.608 1137.1 47.6 1135.37 46.448C1133.79 45.44 1132.06 44.288 1130.77 42.848C1129.47 41.408 1128.46 39.536 1128.32 37.664C1128.32 35.648 1129.04 33.776 1130.33 32.336C1131.34 31.184 1132.64 30.464 1134.08 30.032C1134.22 29.888 1134.51 29.888 1134.65 29.888L1133.93 27.008C1130.62 27.44 1127.45 28.304 1124.43 29.888C1121.55 31.472 1118.96 33.776 1117.23 36.512C1115.65 38.816 1114.78 41.408 1114.78 44.144C1114.78 46.736 1115.79 49.472 1117.37 51.632C1118.96 53.792 1121.12 55.52 1122.99 57.392C1124.72 59.264 1126.3 61.568 1127.02 64.16C1127.45 65.744 1127.6 67.472 1127.74 69.2C1127.74 70.928 1127.74 72.656 1127.74 74.24V101.456L1121.26 106.64L1123.71 109.808L1128.17 106.208L1144.73 118.16L1162.88 108.08L1176.7 118.16L1210.11 100.448L1210.25 55.088L1218.75 48.176L1216.16 45.008L1209.97 50.048L1200.89 42.128L1185.77 54.656L1192.25 60.416V104.048L1189.09 105.92L1177.71 98.432V59.264L1183.04 54.944L1168.49 42.128ZM1277.19 42.56H1273.16C1273.16 42.704 1273.16 42.704 1273.16 42.704V42.56C1272.87 44.432 1272 46.016 1270.56 47.168C1269.27 48.032 1267.68 48.608 1266.1 48.608C1264.37 48.608 1262.79 48.176 1261.35 47.6C1258.9 46.448 1256.88 44.576 1255.44 42.272L1225.64 59.552V79.712L1236.58 88.352C1235.28 89.504 1234.13 90.656 1232.98 91.808C1229.09 95.696 1225.35 99.872 1223.62 105.056C1222.61 108.656 1222.61 112.544 1224.05 116C1225.49 119.456 1228.37 122.192 1231.83 123.632L1233.27 119.744C1232.4 119.312 1231.83 118.592 1231.4 117.728C1231.11 116.72 1231.11 115.568 1231.54 114.56C1231.83 113.552 1232.55 112.688 1233.41 112.112C1234.71 111.248 1236.15 110.816 1237.73 110.816C1239.17 110.672 1240.61 111.104 1242.05 111.68C1244.79 112.688 1247.24 114.848 1248.68 117.44L1277.04 100.16V78.416L1264.66 69.344C1266.24 67.904 1267.68 66.464 1269.12 64.88C1270.71 62.72 1272.15 60.416 1273.16 57.968C1275.46 53.216 1276.76 47.888 1277.19 42.56ZM1250.55 81.44L1258.47 87.92V106.64C1256.74 102.608 1253.43 99.296 1249.54 97.424C1246.66 95.984 1243.49 95.408 1240.32 95.552C1237.16 95.84 1234.13 96.992 1231.68 98.864C1232.98 97.424 1234.42 95.984 1235.86 94.544C1238.88 91.664 1242.05 88.784 1245.36 85.904L1250.55 81.44ZM1250.12 76.544L1244.21 70.352V51.632C1245.8 55.664 1249.11 59.12 1253.14 60.848C1256.02 62.144 1259.04 62.576 1262.07 62.144C1263.8 61.856 1265.52 61.424 1267.11 60.704C1266.68 61.28 1266.24 61.856 1265.81 62.432C1264.37 64.304 1262.5 65.888 1260.77 67.328L1250.12 76.544ZM1332.49 30.32V59.264L1352.65 72.512L1351.36 73.664C1349.05 75.68 1347.04 77.552 1344.88 79.568C1341.42 83.168 1337.96 86.624 1334.8 90.512C1331.63 94.4 1328.89 98.576 1327.16 103.184C1325.58 107.36 1324.86 111.968 1325.44 116.432C1325.87 120.896 1327.6 125.216 1330.19 128.816C1333.5 133.568 1338.11 137.168 1343.29 139.472C1348.48 141.776 1354.09 142.928 1359.85 142.928C1368.78 143.216 1377.71 141.056 1385.48 136.448C1393.12 131.984 1399.31 124.784 1402.04 116.288C1402.19 115.568 1402.33 114.992 1402.48 114.272L1398.59 113.264C1398.44 113.84 1398.3 114.56 1398.16 115.136C1396.86 118.592 1394.7 121.616 1391.82 123.776C1388.94 126.08 1385.63 127.664 1382.17 128.672C1375.26 130.688 1367.92 131.12 1360.72 131.552C1355.82 131.984 1350.78 132.128 1346.03 131.264C1341.13 130.4 1336.52 128.096 1333.36 124.352C1331.05 121.76 1329.76 118.448 1329.32 114.992C1329.18 113.264 1329.18 111.536 1329.47 109.808C1329.9 108.944 1330.48 108.224 1331.2 107.792C1332.06 107.072 1333.07 106.64 1334.08 106.352C1337.96 105.056 1342.14 104.624 1346.32 104.48C1349.63 104.48 1353.08 104.912 1356.25 105.92C1362.59 107.936 1368.35 111.68 1372.81 116.576L1412.27 91.664V55.52C1408.96 52.928 1405.36 50.48 1401.61 48.32C1398.16 46.592 1394.56 45.008 1390.96 43.712C1395.71 39.536 1400.46 35.36 1404.35 30.32C1409.39 23.984 1413.13 16.64 1414.57 8.71999C1414.86 6.848 1415 4.832 1415 2.816V0.799998H1413.13V0.655992H1412.99H1410.97C1410.83 2.816 1410.11 4.832 1409.1 6.55999C1407.08 10.304 1403.34 12.896 1399.31 14.048C1395.28 15.2 1390.81 14.912 1386.78 13.76C1381.31 12.32 1376.12 9.44 1371.95 5.552L1332.49 30.32ZM1381.02 93.824C1378.57 92.384 1375.98 91.232 1373.24 90.224C1365.9 87.632 1357.84 86.48 1350.2 87.92C1345.74 88.928 1341.56 90.656 1337.82 93.248C1337.96 93.104 1338.11 92.96 1338.25 92.816C1341.13 89.216 1344.44 85.76 1347.76 82.448C1349.77 80.576 1351.79 78.56 1353.95 76.688L1375.98 57.104L1381.02 59.552V93.824ZM1385.05 96.128V61.568L1393.4 65.6V98.72L1390.67 100.016C1388.94 98.72 1387.07 97.28 1385.05 96.128ZM1359.28 25.28V54.224L1351.36 48.608V23.264L1354.09 21.968C1355.82 23.264 1357.55 24.272 1359.28 25.28ZM1363.31 27.296C1365.47 28.304 1367.77 29.168 1370.08 29.888C1377.56 32.336 1385.63 33.2 1393.12 31.04C1396.14 30.32 1399.02 29.024 1401.61 27.296C1401.47 27.44 1401.32 27.584 1401.18 27.728C1396.57 33.776 1390.52 38.672 1384.91 43.712L1367.05 59.552L1363.31 56.96V27.296ZM1460.07 99.584L1453.87 103.616L1448.98 98.864V55.376L1438.03 42.272L1418.59 55.376L1420.75 58.112L1426.23 54.656L1431.12 60.848V98.864L1422.05 105.056L1424.21 107.792L1428.96 104.336L1442.79 116.72L1463.52 102.32L1460.07 99.584ZM1426.51 22.832L1438.75 36.8L1452.43 24.704L1440.19 10.736L1426.51 22.832ZM1492.97 98.864V54.224H1503.34L1510.11 46.304H1492.97V29.744H1490.24L1466.76 53.36V55.376C1467.92 55.376 1469.07 55.52 1470.08 56.096C1471.08 56.528 1472.09 57.248 1472.67 58.112C1473.1 58.832 1473.39 59.408 1473.53 60.128C1473.68 60.848 1473.68 61.568 1473.68 62.288V97.424L1464.03 103.616L1466.19 106.496L1471.66 103.04L1486.78 116.144L1506.65 105.776L1504.64 103.04L1499.74 105.632L1492.97 98.864ZM1510.86 106.784L1517.19 101.6L1538.65 117.44L1568.31 93.392L1566.15 89.936L1550.31 102.32L1533.03 90.512V84.32L1564.14 65.024V64.304L1549.59 42.272L1515.18 60.128V98.144L1508.26 103.616L1510.86 106.784ZM1533.03 80.864V54.8L1535.77 53.216L1548.3 71.216L1533.03 80.864Z" fill="black"/>
</svg>
